 http://www.imdb.com/title/tt0123755/
General
Complete name : Cube (1997)~the.HHCube~the.hh.mp4
Format : MPEG-4
Format profile : Base Media
Codec ID : isom
File size : 324 MiB
Duration : 1h 30mn
Overall bit rate mode : Variable
Overall bit rate : 501 Kbps
Encoded date : UTC 2013-01-22 20:12:06
Tagged date : UTC 2013-01-22 20:12:06

Video
ID : 1
Format : AVC
Format/Info : Advanced Video Codec
Format profile : High@L3.0
Format settings, CABAC : Yes
Format settings, ReFrames : 4 frames
Codec ID : avc1
Codec ID/Info : Advanced Video Coding
Duration : 1h 30mn
Bit rate : 434 Kbps
Maximum bit rate : 2 419 Kbps
Width : 720 pixels
Height : 400 pixels
Display aspect ratio : 16:9
Frame rate mode : Constant
Frame rate : 24.000 fps
Color space : YUV
Chroma subsampling : 4:2:0
Bit depth : 8 bits
Scan type : Progressive
Bits/(Pixel*Frame) : 0.063
Stream size : 281 MiB (86%)
Writing library : x264 core 129 r2230 1cffe9f


Audio
ID : 2
Format : AAC
Format/Info : Advanced Audio Codec
Format profile : LC
Codec ID : 40
Duration : 1h 30mn
Bit rate mode : Variable
Bit rate : 64.0 Kbps
Maximum bit rate : 115 Kbps
Channel(s) : 2 channels
Channel positions : Front: L R
Sampling rate : 48.0 KHz
Compression mode : Lossy
Stream size : 41.3 MiB (13%)
Language : English
Encoded date : UTC 2013-01-22 20:12:31
Tagged date : UTC 2013-01-22 20:12:34

SEED SEED SEED
SCREENS 
http://stpicz.com/1015_vlcsnap_2013_01_23_16h38m45s102_77dk.png 
http://stpicz.com/3085_vlcsnap_2013_01_23_16h38m49s139_wvn4.png 
http://stpicz.com/4556_vlcsnap_2013_01_23_16h38m41s61_mj8f.png 
http://stpicz.com/8964_vlcsnap_2013_01_23_16h38m36s12_gjfj.png 
http://stpicz.com/2304_vlcsnap_2013_01_23_16h38m33s236_17w3.png